<?xml version="1.0" encoding="utf-8"?>
<!-- Generator: Adobe Illustrator 24.0.2, SVG Export Plug-In . SVG Version: 6.00 Build 0)  -->
<svg version="1.1" id="Uploaded_to_svgrepo.com" xmlns="http://www.w3.org/2000/svg" xmlns:xlink="http://www.w3.org/1999/xlink"
	 x="0px" y="0px" viewBox="0 0 64 64" style="enable-background:new 0 0 64 64;" xml:space="preserve">
<style type="text/css">
	.st0{fill:#FFFFFF;}
</style>
<g id="SVGRepo_bgCarrier">
</g>
<g id="SVGRepo_tracerCarrier">
</g>
<path class="st0" d="M16.2,62.9c-7-2.5-12-8.7-14-17.2C1.2,41.9,1,35.5,1.7,35.5c0.3,0,0.9,1.7,1.5,3.9c1.2,4.7,3.4,9.1,5.4,11.2
	c3.4,3.6,11.8,5,16.6,2.8c3.8-1.7,5.3-5.8,3.7-9.7c-1.3-3.1-4.1-4.1-9.5-3.4c0,0-3.3-3.5-4.3-9.8l3.4,0.3c4,0.4,7.1-0.5,8.7-2.5
	c1.5-1.9,1.5-2.6-0.2-4.6c-2.4-2.8-6.7-2.1-15.4,2.5l-4.4-7.4L9,17.4c4.6-3.5,12.6-5.3,17.2-3.8c4.2,1.4,7.2,6.8,6.4,11.4
	c-0.6,3.1-3,7.4-5,8.7l-1.7,1l2.3,1c3.9,1.8,6.3,0.4,9.1-5.1C41.3,23,43.8,21,49.7,21c2.8,0,3.7,0.3,5.7,1.7
	c5,3.5,7.8,10.8,7.2,19.1c-0.8,10.5-5.7,16.8-13.1,16.8c-4.1,0-6.7-1.4-8.8-4.8c-1.8-2.9-2.7-8.8-1.6-11.3c0.5-1.2,0.6-1.3,0.6-0.3
	c0.1,1.8,2.1,4.7,4,5.7c4.6,2.4,11.3-0.6,13.9-6.3c2-4.3,0.9-12.6-1.8-14.1c-0.6-0.3-2-0.6-3.1-0.6c-2.5,0-4.4,1.8-7.1,6.5
	c-0.9,1.6-2.5,3.8-3.5,4.7c-1.6,1.5-2.2,1.7-5.4,1.7h-3.6l1.2,2.6c1.7,3.7,1.6,9.7-0.2,13.4c-1.6,3.2-5.2,6.5-8,7.3
	C23.2,63.9,18.7,63.8,16.2,62.9z M29.7,12.8C28.1,10.1,27.1,5,28.2,5c1.3,2.7,3.8,5.2,6.6,6.8c4.9,2.4,10,1.4,15.4-3
	c1.2-1,2.3-1.7,2.4-1.5c1.3,2.1,3.7,3.8,4.4,6.2c0,1-4.4,3.9-7.8,5.2C40.6,21.3,34.8,20.3,29.7,12.8z M34,6.6l5.6-6.2l6.2,5.7
	c-2.1,1.7-3.7,4.5-6.1,5.8C37.8,10.5,35,8.9,34,6.6z"/>
</svg>
