<svg id="Layer_1" data-name="Layer 1" xmlns="http://www.w3.org/2000/svg" xmlns:xlink="http://www.w3.org/1999/xlink" viewBox="0 0 804 800"><defs><style>.cls-1{fill:#1c8adb;}.cls-2{opacity:0.42;isolation:isolate;fill:url(#linear-gradient);}.cls-3{fill:#fff;}.cls-4{fill:#f34130;}</style><linearGradient id="linear-gradient" x1="422.4" y1="368.19" x2="175.65" y2="614.93" gradientTransform="translate(0 8)" gradientUnits="userSpaceOnUse"><stop offset="0"/><stop offset="1" stop-opacity="0"/></linearGradient></defs><title>CP4</title><circle class="cls-1" cx="404" cy="400" r="400"/><path class="cls-2" d="M676.5,316.74c-2.68,70.78,10.83,96,6,162.47l3.08,64.55L327.65,797.2,272.5,779.11C59.5,700.11-3,508.34-3,370.84l150.31-129.3c3.07-3.07,135.41-27.76,138.81-30.45l26.06,104.73L133.26,467.65,275.64,555,402.47,425.58,510.25,242.75Z" transform="translate(3)"/><path class="cls-3" d="M312.18,481.06s9.94-4.27,33.35-39.9c7.71-11.73,8.88-26.18,8.82-40.35a190.55,190.55,0,0,1,10.66-64,199.31,199.31,0,0,1,53.62-81.89,192.91,192.91,0,0,1,53.82-35.61c24.36-10.64,49.44-16.53,75.25-16.78a202.38,202.38,0,0,1,56.62,8.14l12.35,4.18a192.43,192.43,0,0,1,45.52,23.28,195.07,195.07,0,0,1,34.19,30.29,200.76,200.76,0,0,1,47.9,99c3.09,17.23,3.18,34.48,2,51.7-1.07,14.87-4.67,29.37-9.56,43.58a187.06,187.06,0,0,1-52.85,79.37,192.54,192.54,0,0,1-71.13,40.61A200,200,0,0,1,545,592.34c-18.9-.62-37.54-3.38-55.5-9.68-7.6-2.66-15.16-5.52-22.62-8.56a5.08,5.08,0,0,1-2.75-3.65q-.18-57.11,0-114.26c0-.12.11-.24.42-.89,1.05,1.38,1.91,2.56,2.8,3.71,13.9,17.91,31.77,30.19,53.5,36.31a108.08,108.08,0,0,0,55.94.92c22.49-5.53,41.28-16.92,55.62-35,16.58-20.88,23.35-44.85,20.4-71.5-3.51-31.8-18.58-56.81-44.23-75.57C593.24,303,576,296.51,557,295.82c-44.55-1.63-76.5,19-97.49,57.39a92.7,92.7,0,0,0-11.33,45.07c0,25-4.13,49.41-13.49,72.64-13.8,34.28-35.78,62.5-65.15,84.89" transform="translate(3)"/><path class="cls-3" d="M356.6,584.28c6.17-4.15,12.47-8.12,18.49-12.47,31.18-22.59,55.06-51.17,70.75-86.45a9.8,9.8,0,0,1,.91-1.48c.23-.32.53-.6,1.44-1.6v6.48c0,43,.38,86.06-.11,129.07-.45,40.06-19.42,69-55.25,86.67a64.33,64.33,0,0,1-26.59,7l-9.55-1.94v-5.68Z" transform="translate(3)"/><path class="cls-4" d="M377.09,549.87c-14.15,11.16-25.5,16.92-42,24.23-8.4,3.73-16.14,6.29-22.62,8.56-18,6.3-36.6,9.06-55.5,9.68a200,200,0,0,1-67.72-9.71,192.75,192.75,0,0,1-71.13-40.57,187.29,187.29,0,0,1-52.84-79.37c-4.89-14.21-8.49-28.71-9.56-43.59-1.23-17.22-1.14-34.47,2-51.7a200.88,200.88,0,0,1,47.9-99,196.25,196.25,0,0,1,34.19-30.29,193.37,193.37,0,0,1,45.52-23.28l12.35-4.18a203.22,203.22,0,0,1,56.62-8.14c25.81.25,50.89,6.14,75.25,16.78,19.81,8.77,45.71,27.5,45.71,27.5L308.82,319.5S288.73,295.82,245,295.82c-18.93.69-36.2,7.18-51.52,18.38C167.86,333,152.79,358,149.28,389.77c-2.95,26.65,3.82,50.62,20.41,71.5,14.33,18.06,33.12,29.45,55.61,35a108.29,108.29,0,0,0,55.94-.92c21.73-6.12,13.88-3.56,32-14.82" transform="translate(3)"/></svg>